# xmcd
#
# Track frame offsets:
#	150
#	16348
#	36858
#	53911
#	69001
#	89288
#	105101
#	121658
#	135926
#	152148
#	167321
#	182681
#	200634
#	216851
#	256145
#	274059
#
# Disc length: 3870 seconds
#
# Revision: 0
# Processed by: cddbd v1.4b41PL1 Copyright (c) Steve Scherf et al.
# Submitted via: audiograbber 1.80
#
DISCID=c50f1c10
DTITLE=Coyote Ugly - Soundtrack and Lean Rimes Maxi
DYEAR=1900
DGENRE=
TTITLE0=Can't Fight The Moonlight
TTITLE1=Please Remember
TTITLE2=The Right Kind Of Wrong
TTITLE3=But I Do Love You
TTITLE4=All She Wants To Do Is Dance
TTITLE5=Unbelievable
TTITLE6=The Power
TTITLE7=Need You Tonight
TTITLE8=The Devil Went Down To Georgia
TTITLE9=Boom Boom Boom
TTITLE10=Didn't We Love
TTITLE11=We Can Get There
TTITLE12=LeAnn Rimes - Can't Fight The Moonlight
TTITLE13=LeAnn Rimes - Can't Fight The Moonlight
TTITLE14=LeAnn Rimes - Can't Fight The Moonlight
TTITLE15=LeAnn Rimes - Can't Fight The Moonlight
EXTD=plus Leann Rimes Maxi CD\nCan't Fight The Moonlight in 4 Versionen
EXTT0=
EXTT1=
EXTT2=
EXTT3=
EXTT4=
EXTT5=
EXTT6=
EXTT7=
EXTT8=
EXTT9=
EXTT10=
EXTT11=
EXTT12=
EXTT13=
EXTT14=
EXTT15=
PLAYORDER=
